# xmcd
#
# Track frame offsets: 
#        150
#        14508
#        28545
#        44228
#        62106
#        76937
#        96823
#        113407
#        129821
#        148221
#        168720
#        185409
#        200416
#        216440
#
# Disc length: 3116 seconds
#
# Revision: 0
# Processed by: cddbd v1.5.2PL0 Copyright (c) Steve Scherf et al.
# Submitted via: ExactAudioCopy v1.0b4
#
DISCID=c90c2a0e
DTITLE=Little Willie Farmer - I'm Coming Back Home
DYEAR=2017
DGENRE=Blues
TTITLE0=Goin To Louisania
TTITLE1=Come Home Find My Baby Cry
TTITLE2=Rock Me Baby
TTITLE3=Hurt Me When You Cry
TTITLE4=Boogie Chillum
TTITLE5=I'm Going Back Home
TTITLE6=Back Door Friend
TTITLE7=Little Schoolgirl
TTITLE8=My Baby Is Gone
TTITLE9=Little Red Rooster
TTITLE10=Mr. Charlie
TTITLE11=Goin To Louisania T2
TTITLE12=Grandmama Told Grandpap
TTITLE13=Obama - The President Song
EXTD=
EXTT0=
EXTT1=
EXTT2=
EXTT3=
EXTT4=
EXTT5=
EXTT6=
EXTT7=
EXTT8=
EXTT9=
EXTT10=
EXTT11=
EXTT12=
EXTT13=
PLAYORDER=
